# AST/ASF file generated using VICON BodyLanguage
# -----------------------------------------------
:version 1.10
:name VICON
:units
  mass 1.0
  length 0.45
  angle deg
:documentation
   .ast/.asf automatically generated from VICON data using
   VICON BodyBuilder and BodyLanguage model FoxedUp or BRILLIANT.MOD
:root
   order TX TY TZ RX RY RZ
   axis XYZ
   position 0 0 0  
   orientation 0 0 0 
:bonedata
  begin
     id 1 
     name lhipjoint
     direction 0.722297 -0.617336 0.311742 
     length 2.6635 
     axis 0 0 0  XYZ
  end
  begin
     id 2 
     name lfemur
     direction 0.34202 -0.939693 0  
     length 7.39349  
     axis 0 0 20  XYZ
    dof rx ry rz
    limits (-160.0 20.0)
           (-70.0 70.0)
           (-60.0 70.0)
  end
  begin
     id 3 
     name ltibia
     direction 0.34202 -0.939693 0   
     length 7.36294   
     axis 0 0 20   XYZ
    dof rx
    limits (-10.0 170.0)
  end
  begin
     id 4 
     name lfoot
     direction 0.104879 -0.288152 0.951824   
     length 2.16981   
     axis -90 7.62852e-016 20   XYZ
    dof rx rz
    limits (-45.0 90.0)
           (-70.0 20.0)
  end
  begin
     id 5 
     name ltoes
     direction 1.53586e-011 -4.21895e-011 1   
     length 1.08218   
     axis -90 7.62852e-016 20   XYZ
    dof rx
    limits (-90.0 20.0)
  end
  begin
     id 6 
     name rhipjoint
     direction -0.75102 -0.589393 0.297631   
     length 2.78977  
     axis 0 0 0  XYZ 
  end
  begin
     id 7 
     name rfemur
     direction -0.34202 -0.939693 0   
     length 7.46076   
     axis 0 0 -20   XYZ
    dof rx ry rz
    limits (-160.0 20.0)
           (-70.0 70.0)
           (-70.0 60.0)
  end
  begin
     id 8 
     name rtibia
     direction -0.34202 -0.939693 0   
     length 7.31726   
     axis 0 0 -20   XYZ
    dof rx
    limits (-10.0 170.0)
 end
 begin
     id 9 
     name rfoot
     direction -0.107991 -0.296704 0.948844   
     length 2.09388  
     axis -90 -7.62852e-016 -20   XYZ
    dof rx rz
    limits (-45.0 90.0)
           (-20.0 70.0)
  end
  begin
     id 10 
     name rtoes
     direction -1.53559e-011 -4.21911e-011 1   
     length 1.04433   
     axis -90 -7.62852e-016 -20   XYZ
    dof rx
    limits (-90.0 20.0)
  end
  begin
     id 11 
     name lowerback
     direction 0.0165164 0.98272 0.184358   
     length 1.71896   
     axis 0 0 0   XYZ
    dof rx ry rz
    limits (-20.0 45.0)
           (-30.0 30.0)
           (-30.0 30.0)
  end
  begin
     id 12 
     name upperback
     direction -0.00887249 0.992297 0.123566   
     length 1.71504   
     axis 0 0 0   XYZ
    dof rx ry rz
    limits (-20.0 45.0)
           (-30.0 30.0)
           (-30.0 30.0)
  end
  begin
     id 13 
     name thorax
     direction -0.0157026 0.998908 0.0440032   
     length 1.77022   
     axis 0 0 0   XYZ
    dof rx ry rz
    limits (-20.0 45.0)
           (-30.0 30.0)
           (-30.0 30.0)
  end
  begin
     id 14 
     name lowerneck
     direction -0.0238856 0.998137 0.0561411   
     length 1.89341   
     axis 0 0 0   XYZ
    dof rx ry rz
    limits (-20.0 45.0)
           (-30.0 30.0)
           (-30.0 30.0)
  end
  begin
     id 15 
     name upperneck
     direction 0.0276574 0.952253 -0.304056   
     length 1.86999   
     axis 0 0 0   XYZ
    dof rx ry rz
    limits (-20.0 45.0)
           (-30.0 30.0)
           (-30.0 30.0)
  end
  begin
     id 16
     name head
     direction 0.00800083 0.994258 -0.106712  
     length 1.91492  
     axis 0 0 0   XYZ
    dof rx ry rz
    limits (-20.0 45.0)
           (-30.0 30.0)
           (-30.0 30.0)
  end
  begin
     id 17 
     name lclavicle
     direction 0.97203 0.225407 0.06595  
     length 3.34889  
     axis 0 0 0   XYZ
    dof ry rz
    limits (-20.0 10.0)
           (0.0 20.0)
  end
  begin
     id 18 
     name lhumerus
     direction 1 -4.48973e-011 2.20267e-027   
     length 4.85645   
     axis 180 -30 -90   XYZ
    dof rx ry rz
    limits (-60.0 90.0)
           (-90.0 90.0)
           (-90.0 90.0)
  end
  begin
     id 19
     name lradius
     direction 1 -4.4897e-011 4.60472e-027   
     length 2.79874   
     axis 180 -30 -90   XYZ
    dof rx
    limits (-10.0 170.0)
  end
  begin
     id 20
     name lwrist
     direction 1 -4.48952e-011 1.14928e-026   
     length 1.39937   
     axis -6.29373e-015 90 90   XYZ
    dof ry
    limits (-180.0 0.0)
 end
  begin
     id 21 
     name lhand
     direction 1 -4.48967e-011 2.29886e-026   
     length 0.573398   
     axis -1.46689e-014 90 90   XYZ
    dof rx rz
    limits (-90.0 90.0)
           (-45.0 45.0)
  end
  begin
     id 22 
     name lfingers
     direction 1 -4.48955e-011 4.59726e-026   
     length 0.462289   
     axis -2.93383e-014 90 90   XYZ
    dof rx
    limits (0.0 90.0)
  end
  begin
     id 23
     name lthumb
     direction 0.707107 -6.34866e-011 0.707107   
     length 0.663757   
     axis -90 45 5.69224e-014   XYZ
    dof rx rz
    limits (-45.0 45.0)
           (-45.0 45.0)
  end
  begin
     id 24 
     name rclavicle
     direction -0.981571 0.157346 0.108443   
     length 3.35257  
     axis 0 0 0   XYZ 
    dof ry rz
    limits (-10.0 20.0)
           (-20.0 0.0)
  end
  begin
     id 25 
     name rhumerus
     direction -1 -4.48967e-011 8.58308e-029  
     length 4.67018   
     axis 180 30 90   XYZ
    dof rx ry rz
    limits (-90.0 60.0)
           (-90.0 90.0)
           (-90.0 90.0)
  end
  begin
     id 26 
     name rradius
     direction -1 -4.48958e-011 4.52548e-027   
     length 2.65534   
     axis 180 30 90   XYZ
    dof rx
    limits (-10.0 170.0)
  end
  begin
     id 27 
     name rwrist
     direction -1 -4.48977e-011 1.14952e-026   
     length 1.32767   
     axis -6.29373e-015 -90 -90   XYZ
    dof ry
    limits (-180.0 0.0)
  end
  begin
     id 28
     name rhand
     direction -1 -4.48924e-011 2.29804e-026   
     length 0.594069   
     axis -1.46689e-014 -90 -90   XYZ
    dof rx rz
    limits (-90.0 90.0)
           (-45.0 45.0)
  end
  begin
     id 29
     name rfingers
     direction -1 -4.48998e-011 4.59888e-026   
     length 0.478954   
     axis -2.93383e-014 -90 -90   XYZ
    dof rx
    limits (0.0 90.0)
  end
  begin
     id 30
     name rthumb
     direction -0.707107 -6.34933e-011 0.707107   
     length 0.687685   
     axis -90 -45 -5.69224e-014   XYZ
    dof rx rz
    limits (-45.0 45.0)
           (-45.0 45.0)
  end
:hierarchy
  begin
    root lhipjoint rhipjoint lowerback
    lhipjoint lfemur
    lfemur ltibia
    ltibia lfoot
    lfoot ltoes
    rhipjoint rfemur
    rfemur rtibia
    rtibia rfoot
    rfoot rtoes
    lowerback upperback
    upperback thorax
    thorax lowerneck lclavicle rclavicle
    lowerneck upperneck
    upperneck head
    lclavicle lhumerus
    lhumerus lradius
    lradius lwrist
    lwrist lhand lthumb
    lhand lfingers
    rclavicle rhumerus
    rhumerus rradius
    rradius rwrist
    rwrist rhand rthumb
    rhand rfingers
  end

#!OML:ASF E:\pregnant2\Project 1\Capture day 1\Session 1\pregnant2.ASF
:FULLY-SPECIFIED
:DEGREES
757
root -3.01896 4.14722 17.6247 3.31099 3.77175 -26.6852
lowerback 3.523 4.37866 -0.050023
upperback -4.26072 5.93851 1.06151
thorax -6.52436 2.97131 0.585208
lowerneck -19.5276 -4.6609 -9.64249
upperneck 37.9406 -1.12324 -4.22371
head 17.4157 -2.4764 -0.466832
rclavicle 4.13472e-014 9.54166e-015
rhumerus -49.6931 48.5188 -63.9093
rradius 47.3491
rwrist 4.76011
rhand -9.65106 -9.58558
rfingers 7.12502
rthumb 16.3196 -38.9189
lclavicle 4.13472e-014 9.54166e-015
lhumerus -60.092 -0.483018 73.6598
lradius 33.0802
lwrist 1.66357
lhand -39.2099 78.8425
lfingers 7.12502
lthumb -12.2061 251.534
rfemur -134.048 -19.533 47.0364
rtibia 142.164
rfoot -12.4408 5.37384
rtoes -5.41337
lfemur -140.773 -13.8085 -41.4459
ltibia 137.149
lfoot -11.0854 19.8371
ltoes 38.6882
758
root -3.01658 4.13731 17.6195 3.30459 3.87949 -26.6531
lowerback 3.52723 4.33891 -0.0589543
upperback -4.28077 5.89021 1.13799
thorax -6.5566 2.95009 0.672239
lowerneck -19.5312 -4.68192 -9.66698
upperneck 37.9928 -1.17666 -4.14473
head 17.4466 -2.49196 -0.43961
rclavicle -1.07344e-014 -5.40694e-014
rhumerus -51.8538 48.254 -65.8643
rradius 47.1406
rwrist 4.61263
rhand -9.53835 -9.67669
rfingers 7.12502
rthumb 16.4282 -39.001
lclavicle -1.07344e-014 -5.40694e-014
lhumerus -60.1767 -0.509756 73.9059
lradius 33.1364
lwrist 1.7656
lhand -39.212 78.8795
lfingers 7.12502
lthumb -12.208 251.497
rfemur -134.224 -19.6547 47.0101
rtibia 142.206
rfoot -12.3885 5.40414
rtoes -5.57092
lfemur -140.753 -13.9585 -41.5438
ltibia 137.083
lfoot -11.0498 19.8381
ltoes 38.5803
759
root -3.01478 4.12758 17.6148 3.28939 3.95724 -26.6283
lowerback 3.53767 4.30752 -0.0707281
upperback -4.29686 5.85322 1.21899
thorax -6.58914 2.93473 0.764177
lowerneck -19.5276 -4.70555 -9.69887
upperneck 38.0385 -1.23623 -4.05789
head 17.4727 -2.50966 -0.408369
rclavicle -5.76476e-015 4.13472e-014
rhumerus -53.9489 47.9375 -67.7914
rradius 46.9163
rwrist 4.50219
rhand -9.39193 -9.74863
rfingers 7.12502
rthumb 16.5691 -39.0613
lclavicle -5.76476e-015 4.13472e-014
lhumerus -60.265 -0.539264 74.1577
lradius 33.1963
lwrist 1.87919
lhand -39.2165 78.9174
lfingers 7.12502
lthumb -12.2124 251.459
rfemur -134.358 -19.7291 46.9497
rtibia 142.244
rfoot -12.332 5.4134
rtoes -5.73857
lfemur -140.736 -14.0775 -41.6357
ltibia 137.038
lfoot -11.0718 19.8467
ltoes 38.5496
760
root -3.01343 4.11815 17.6103 3.26723 4.00125 -26.6097
lowerback 3.55065 4.28444 -0.0905237
upperback -4.30943 5.82739 1.30868
thorax -6.62136 2.92556 0.86847
lowerneck -19.523 -4.73109 -9.74239
upperneck 38.0857 -1.2967 -3.9653
head 17.5 -2.52866 -0.372745
rclavicle -1.72943e-014 1.59028e-014
rhumerus -55.972 47.5675 -69.671
rradius 46.6785
rwrist 4.44712
rhand -9.23566 -9.78512
rfingers 7.12502
rthumb 16.7196 -39.0851
lclavicle -1.72943e-014 1.59028e-014
lhumerus -60.3588 -0.568266 74.4204
lradius 33.2555
lwrist 2.00832
lhand -39.2231 78.9545
lfingers 7.12502
lthumb -12.2187 251.422
rfemur -134.449 -19.7501 46.8513
rtibia 142.276
rfoot -12.2675 5.40379
rtoes -5.89341
lfemur -140.727 -14.1596 -41.7253
ltibia 137.009
lfoot -11.1321 19.8572
ltoes 38.5686
761
root -3.0124 4.1086 17.6062 3.24557 4.03659 -26.5917
lowerback 3.55871 4.26183 -0.11431
upperback -4.32212 5.80218 1.40218
thorax -6.65166 2.91708 0.979319
lowerneck -19.5137 -4.75773 -9.79499
upperneck 38.1349 -1.35729 -3.86925
head 17.5278 -2.5486 -0.333973
rclavicle 3.8763e-014 6.04305e-014
rhumerus -57.91 47.1256 -71.4839
rradius 46.4248
rwrist 4.46441
rhand -9.05902 -9.7847
rfingers 7.12502
rthumb 16.8896 -39.0703
lclavicle 3.8763e-014 6.04305e-014
lhumerus -60.4607 -0.604266 74.6965
lradius 33.3176
lwrist 2.15706
lhand -39.2312 79.0022
lfingers 7.12502
lthumb -12.2266 251.375
rfemur -134.535 -19.7549 46.7418
rtibia 142.306
rfoot -12.1949 5.38836
rtoes -6.06452
lfemur -140.721 -14.2422 -41.8072
ltibia 136.993
lfoot -11.223 19.8846
ltoes 38.6173
762
root -3.01161 4.09893 17.6022 3.22654 4.07045 -26.5722
lowerback 3.55947 4.23588 -0.145178
upperback -4.33418 5.77245 1.50302
thorax -6.6784 2.90704 1.10279
lowerneck -19.517 -4.78569 -9.85412
upperneck 38.1961 -1.41176 -3.7802
head 17.5659 -2.56858 -0.296769
rclavicle -4.17448e-015 -2.54444e-014
rhumerus -59.7647 46.6284 -73.2203
rradius 46.1664
rwrist 4.53437
rhand -8.89528 -9.75626
rfingers 7.12502
rthumb 17.0472 -39.0283
lclavicle -4.17448e-015 -2.54444e-014
lhumerus -60.5695 -0.636588 74.9875
lradius 33.3819
lwrist 2.31811
lhand -39.2312 79.0733
lfingers 7.12502
lthumb -12.2266 251.304
rfemur -134.625 -19.7533 46.6279
rtibia 142.338
rfoot -12.1135 5.37266
rtoes -6.21654
lfemur -140.717 -14.332 -41.8825
ltibia 136.984
lfoot -11.3187 19.9235
ltoes 38.6671
763
root -3.01064 4.08948 17.5975 3.20364 4.10901 -26.5492
lowerback 3.56429 4.20392 -0.182609
upperback -4.34648 5.73474 1.61068
thorax -6.70882 2.8936 1.23746
lowerneck -19.5259 -4.81454 -9.91797
upperneck 38.2656 -1.4614 -3.69831
head 17.6105 -2.58874 -0.261473
rclavicle -3.57812e-015 0
rhumerus -61.5407 46.0778 -74.8768
rradius 45.9094
rwrist 4.63903
rhand -8.74301 -9.70039
rfingers 7.12502
rthumb 17.1938 -38.9597
lclavicle -3.57812e-015 0
lhumerus -60.6873 -0.659599 75.287
lradius 33.448
lwrist 2.48687
lhand -39.2287 79.1553
lfingers 7.12502
lthumb -12.2242 251.222
rfemur -134.714 -19.7615 46.5158
rtibia 142.365
rfoot -12.0277 5.36181
rtoes -6.35421
lfemur -140.7 -14.4272 -41.9594
ltibia 136.973
lfoot -11.4184 19.9669
ltoes 38.7137
764
root -3.00961 4.08009 17.5929 3.17293 4.16063 -26.5206
lowerback 3.57717 4.16559 -0.222378
upperback -4.35755 5.68849 1.7197
thorax -6.74249 2.87611 1.37526
lowerneck -19.5436 -4.84437 -9.98175
upperneck 38.3441 -1.509 -3.62076
head 17.6626 -2.60909 -0.22825
rclavicle -3.51849e-014 -1.27222e-014
rhumerus -63.2347 45.4741 -76.4569
rradius 45.6481
rwrist 4.74422
rhand -8.61339 -9.63182
rfingers 7.12502
rthumb 17.3186 -38.8802
lclavicle -3.51849e-014 -1.27222e-014
lhumerus -60.8076 -0.675137 75.5862
lradius 33.5132
lwrist 2.65258
lhand -39.2215 79.2342
lfingers 7.12502
lthumb -12.2173 251.143
rfemur -134.812 -19.7999 46.4183
rtibia 142.395
rfoot -11.9377 5.36368
rtoes -6.44948
lfemur -140.668 -14.5346 -42.0383
ltibia 136.96
lfoot -11.5014 20.0171
ltoes 38.7252
765
root -3.00853 4.07092 17.5881 3.13282 4.22331 -26.4889
lowerback 3.59995 4.12128 -0.263996
upperback -4.36686 5.63438 1.83203
thorax -6.78007 2.85494 1.51776
lowerneck -19.5672 -4.87807 -10.045
upperneck 38.4258 -1.55843 -3.55148
head 17.7185 -2.63148 -0.199555
rclavicle 6.55989e-015 2.8625e-014
rhumerus -64.8543 44.8305 -77.9671
rradius 45.3872
rwrist 4.81614
rhand -8.49111 -9.57851
rfingers 7.12502
rthumb 17.4362 -38.8165
lclavicle 6.55989e-015 2.8625e-014
lhumerus -60.931 -0.676131 75.8815
lradius 33.5812
lwrist 2.81123
lhand -39.2131 79.3155
lfingers 7.12502
lthumb -12.2092 251.061
rfemur -134.911 -19.8644 46.3351
rtibia 142.426
rfoot -11.8475 5.37483
rtoes -6.54323
lfemur -140.618 -14.6477 -42.1191
ltibia 136.943
lfoot -11.5601 20.0679
ltoes 38.6871
766
root -3.0075 4.06202 17.5832 3.08463 4.29175 -26.4519
lowerback 3.63011 4.07469 -0.30657
upperback -4.37377 5.57694 1.94099
thorax -6.81869 2.83208 1.6574
lowerneck -19.5889 -4.91527 -10.1092
upperneck 38.504 -1.61491 -3.47918
head 17.7724 -2.65631 -0.17055
rclavicle 6.77856e-014 2.54444e-014
rhumerus -66.3948 44.1451 -79.4162
rradius 45.1196
rwrist 4.83323
rhand -8.37076 -9.55885
rfingers 7.12502
rthumb 17.5521 -38.7865
lclavicle 6.77856e-014 2.54444e-014
lhumerus -61.0511 -0.666475 76.1613
lradius 33.6487
lwrist 2.95881
lhand -39.2077 79.3708
lfingers 7.12502
lthumb -12.204 251.005
rfemur -135.009 -19.9463 46.2577
rtibia 142.458
rfoot -11.7543 5.39464
rtoes -6.6336
lfemur -140.556 -14.7569 -42.2068
ltibia 136.919
lfoot -11.5755 20.1102
ltoes 38.5832
767
root -3.00681 4.05342 17.5786 3.02788 4.35862 -26.4125
lowerback 3.66767 4.02872 -0.350144
upperback -4.37941 5.52004 2.04608
thorax -6.85967 2.80943 1.79326
lowerneck -19.5961 -4.95649 -10.1748
upperneck 38.5691 -1.68331 -3.40021
head 17.8159 -2.6846 -0.139909
rclavicle -1.25234e-014 2.22639e-014
rhumerus -67.8526 43.4107 -80.8015
rradius 44.842
rwrist 4.7939
rhand -8.2632 -9.58683
rfingers 7.12502
rthumb 17.6556 -38.8052
lclavicle -1.25234e-014 2.22639e-014
lhumerus -61.1688 -0.651573 76.4256
lradius 33.7154
lwrist 3.09852
lhand -39.2026 79.4221
lfingers 7.12502
lthumb -12.199 250.954
rfemur -135.097 -20.0308 46.1806
rtibia 142.49
rfoot -11.6499 5.41285
rtoes -6.64543
lfemur -140.49 -14.8547 -42.2993
ltibia 136.895
lfoot -11.574 20.1482
ltoes 38.4696
